<?xml version="1.0" standalone="no"?>
<!DOCTYPE svg PUBLIC "-//W3C//DTD SVG 20010904//EN"
 "http://www.w3.org/TR/2001/REC-SVG-20010904/DTD/svg10.dtd">
<svg version="1.0" xmlns="http://www.w3.org/2000/svg"
 width="310.000000pt" height="310.000000pt" viewBox="0 0 310.000000 310.000000"
 preserveAspectRatio="xMidYMid meet">
<metadata>
Created by potrace 1.11, written by Peter Selinger 2001-2013
</metadata>
<g transform="translate(0.000000,310.000000) scale(0.100000,-0.100000)"
fill="#000000" stroke="none">
<path d="M1841 3091 c-9 -6 -10 -10 -2 -16 9 -5 9 -10 0 -21 -9 -11 -8 -14 2
-14 8 0 5 -6 -7 -15 -15 -12 -16 -14 -3 -15 16 0 23 -30 6 -30 -5 0 -4 -6 2
-14 9 -11 9 -15 -1 -19 -10 -4 -10 -8 2 -16 12 -8 12 -11 1 -11 -10 0 -11 -3
-2 -14 9 -11 9 -15 -1 -19 -10 -4 -10 -8 2 -16 12 -9 13 -12 1 -20 -9 -6 -10
-10 -2 -16 9 -5 9 -10 0 -21 -9 -11 -8 -14 2 -14 11 0 11 -2 0 -9 -12 -8 -12
-12 -2 -25 11 -12 11 -16 1 -16 -10 0 -10 -3 0 -15 10 -12 10 -15 -1 -15 -11
0 -11 -2 1 -10 13 -9 13 -10 0 -10 -12 0 -12 -2 -1 -9 9 -6 10 -11 2 -15 -6
-4 -11 -12 -11 -17 0 -6 6 -7 13 -3 9 6 9 4 -1 -8 -10 -13 -10 -17 0 -21 10
-4 10 -7 -1 -15 -9 -7 -10 -11 -2 -17 9 -5 9 -10 0 -21 -9 -11 -8 -14 2 -14 8
0 5 -6 -7 -15 -15 -12 -16 -14 -3 -15 16 0 23 -30 6 -30 -5 0 -4 -6 2 -14 9
-11 9 -15 -1 -19 -10 -4 -10 -8 2 -16 12 -8 12 -11 1 -11 -10 0 -11 -3 -2 -14
9 -11 9 -15 -1 -19 -10 -4 -10 -8 2 -16 12 -9 13 -12 1 -20 -9 -6 -10 -10 -2
-16 9 -5 9 -10 0 -21 -9 -11 -8 -14 2 -14 11 0 11 -2 0 -9 -12 -8 -12 -12 -2
-25 11 -12 11 -16 1 -16 -10 0 -10 -3 0 -15 10 -12 10 -15 -1 -15 -11 0 -11
-2 1 -10 13 -9 13 -10 0 -10 -12 0 -12 -2 -1 -9 9 -6 10 -11 2 -15 -6 -4 -11
-12 -11 -17 0 -6 6 -7 13 -3 9 6 9 4 -1 -8 -10 -13 -10 -17 0 -21 10 -4 10 -7
-1 -15 -9 -7 -10 -11 -2 -17 9 -5 9 -10 0 -21 -9 -11 -8 -14 2 -14 8 0 5 -6
-7 -15 -15 -12 -16 -14 -3 -15 16 0 23 -30 6 -30 -5 0 -4 -6 2 -14 9 -11 9
-15 -1 -19 -10 -4 -10 -8 2 -16 12 -8 12 -11 1 -11 -10 0 -11 -3 -2 -14 9 -11
9 -15 -1 -19 -10 -4 -10 -8 2 -16 12 -9 13 -12 1 -20 -9 -6 -10 -10 -2 -16 9
-5 9 -10 0 -21 -9 -11 -8 -14 2 -14 11 0 11 -2 -1 -10 -13 -9 -13 -10 0 -10
12 0 12 -2 1 -9 -9 -6 -10 -10 -2 -16 9 -5 9 -10 0 -21 -9 -11 -8 -14 2 -14 8
0 5 -6 -7 -15 -15 -12 -16 -14 -3 -15 16 0 23 -30 6 -30 -5 0 -4 -6 2 -14 9
-11 9 -15 -1 -19 -10 -4 -10 -8 2 -16 12 -8 12 -11 1 -11 -10 0 -11 -3 -2 -14
9 -11 9 -15 -1 -19 -10 -4 -10 -8 2 -16 12 -9 13 -12 1 -20 -9 -6 -10 -10 -2
-16 9 -5 9 -10 0 -21 -9 -11 -8 -14 2 -14 11 0 11 -2 0 -9 -12 -8 -12 -12 -2
-25 11 -12 11 -16 1 -16 -10 0 -10 -3 0 -15 10 -12 10 -15 -1 -15 -11 0 -11
-2 1 -10 13 -9 13 -10 0 -10 -12 0 -12 -2 -1 -9 9 -6 10 -11 2 -15 -6 -4 -11
-12 -11 -17 0 -6 6 -7 13 -3 9 6 9 4 -1 -8 -10 -13 -10 -17 0 -21 10 -4 10 -7
-1 -15 -9 -7 -10 -11 -2 -17 9 -5 9 -10 0 -21 -9 -11 -8 -14 2 -14 8 0 5 -6
-7 -15 -15 -12 -16 -14 -3 -15 16 0 23 -30 6 -30 -5 0 -4 -6 2 -14 9 -11 9
-15 -1 -19 -10 -4 -10 -8 2 -16 12 -8 12 -11 1 -11 -10 0 -11 -3 -2 -14 9 -11
9 -15 -1 -19 -10 -4 -10 -8 2 -16 12 -9 13 -12 1 -20 -9 -6 -10 -10 -2 -16 9
-5 9 -10 0 -21 -9 -11 -8 -14 2 -14 11 0 11 -2 0 -9 -12 -8 -12 -12 -2 -25 11
-12 11 -16 1 -16 -10 0 -10 -3 0 -15 10 -12 10 -15 -1 -15 -11 0 -11 -2 1 -10
13 -9 13 -10 0 -10 -12 0 -12 -2 -1 -9 9 -6 10 -11 2 -15 -6 -4 -11 -12 -11
-17 0 -6 6 -7 13 -3 8 5 8 2 -2 -9 -9 -12 -10 -17 -2 -17 7 0 9 -5 4 -12 -11
-19 -13 -39 -2 -32 5 3 9 -4 9 -15 0 -14 6 -21 20 -21 11 0 20 -7 20 -16 0 -8
5 -12 10 -9 6 3 10 1 10 -5 0 -6 4 -9 9 -5 5 3 16 -2 24 -10 9 -8 21 -15 27
-15 6 0 8 -6 4 -12 -6 -10 -4 -10 7 -1 16 15 33 17 24 3 -3 -6 1 -10 10 -10
10 0 13 -5 9 -12 -5 -8 0 -7 11 2 15 12 17 12 10 1 -6 -11 -4 -13 8 -8 10 3
17 2 17 -4 0 -6 5 -7 10 -4 6 3 10 1 10 -4 0 -6 13 -11 28 -11 15 0 34 -6 41
-12 11 -11 12 -10 6 2 -6 11 -3 10 10 -2 17 -16 19 -16 32 0 8 9 12 11 8 5 -3
-7 -1 -13 5 -13 6 0 9 -4 6 -8 -3 -5 1 -9 9 -9 8 0 12 4 9 9 -3 5 9 6 26 3 24
-4 30 -2 24 7 -4 7 2 5 14 -6 17 -15 32 -17 74 -13 29 3 62 9 72 13 15 6 17 4
11 -7 -7 -11 -6 -12 6 -3 20 16 72 28 64 14 -3 -5 -1 -10 4 -10 6 0 11 4 11 9
0 6 9 8 20 6 11 -2 18 -1 16 4 -3 4 4 12 14 19 12 7 21 8 25 2 10 -17 28 -11
21 6 -5 14 -4 15 9 4 11 -9 15 -9 15 -1 0 7 5 9 10 6 6 -3 10 -1 10 6 0 8 4 8
16 -1 12 -11 15 -11 12 -1 -2 7 8 15 21 17 13 3 29 11 35 20 7 8 16 15 21 14
23 -5 34 1 29 15 -5 11 -2 13 10 9 11 -4 16 -1 16 11 0 15 2 16 17 4 11 -10
14 -10 9 -1 -4 7 -2 12 4 12 6 0 8 5 4 13 -5 8 -2 7 9 -2 15 -12 17 -12 11 3
-5 13 -2 15 12 10 11 -4 16 -3 11 1 -9 11 21 45 40 45 8 0 11 5 7 12 -5 8 -2
9 10 5 13 -5 19 -1 23 13 3 11 10 17 17 13 6 -4 5 0 -2 9 -12 14 -10 16 10 10
21 -5 22 -4 8 13 -14 17 -13 17 9 10 15 -4 21 -3 17 3 -3 5 3 20 14 32 19 22
20 40 20 602 -1 507 -3 578 -15 568 -12 -10 -15 -9 -15 10 0 21 -33 60 -52 60
-4 0 -8 9 -8 20 0 11 -3 19 -7 18 -5 -2 -19 5 -33 15 -13 9 -21 17 -16 17 4 0
-2 8 -15 19 -22 17 -24 17 -35 2 -10 -13 -12 -11 -10 16 2 26 -1 30 -11 21
-12 -9 -17 -5 -15 13 1 4 -9 4 -21 1 -19 -5 -20 -3 -9 10 10 13 10 18 1 24 -8
4 -9 3 -5 -4 4 -8 0 -12 -12 -12 -10 0 -24 10 -31 23 -6 12 -9 14 -7 5 6 -20
-18 -15 -46 9 -9 8 -22 12 -29 7 -8 -4 -10 -3 -5 4 5 8 0 12 -13 12 -12 0 -21
5 -21 11 0 5 5 7 12 3 7 -4 8 -3 4 5 -6 9 -11 9 -22 0 -11 -9 -14 -9 -14 1 0
7 -7 10 -15 6 -8 -3 -15 -1 -15 4 0 6 -10 8 -22 6 -13 -2 -29 1 -35 6 -9 7
-13 7 -13 -1 0 -6 -4 -11 -10 -11 -5 0 -7 7 -4 15 5 12 -3 15 -41 15 -34 0
-44 3 -39 13 6 10 4 10 -7 0 -16 -15 -33 -17 -24 -3 3 6 -1 7 -9 4 -9 -3 -13
-11 -9 -18 5 -8 3 -8 -8 0 -8 6 -32 10 -54 8 -28 -3 -36 -1 -25 6 9 6 10 10 3
10 -6 0 -14 -4 -17 -8 -2 -4 -20 -7 -40 -7 -19 1 -34 -1 -33 -4 2 -5 -9 -12
-15 -10 -2 0 -13 2 -25 3 -16 2 -20 -1 -13 -9 8 -10 -6 -11 -67 -6 -9 1 -11
14 -8 42 4 31 2 39 -7 33 -9 -6 -9 -3 1 9 7 9 18 14 24 10 6 -3 7 -1 3 6 -4 6
-12 9 -17 6 -5 -4 -9 -3 -10 2 0 4 -2 16 -4 26 -2 9 1 15 6 11 5 -3 6 -10 3
-16 -4 -7 -2 -8 4 -4 8 5 8 15 2 32 -13 33 -13 37 3 28 9 -6 9 -5 1 7 -15 18
-15 71 -1 62 6 -4 7 -1 1 8 -14 24 -16 51 -2 43 10 -5 10 -4 1 6 -6 7 -9 19
-6 26 3 8 0 21 -6 28 -9 10 -9 16 -1 21 6 4 8 16 4 27 -5 16 -3 19 7 12 11 -6
12 -5 2 7 -10 12 -10 18 0 29 8 8 8 11 1 7 -15 -9 -27 20 -12 29 7 5 8 2 3 -6
-6 -9 -4 -11 4 -5 9 5 10 10 2 18 -13 13 -15 31 -3 23 5 -3 9 1 9 9 0 8 -4 12
-8 10 -4 -3 -9 2 -13 10 -3 8 0 17 6 21 7 5 8 2 3 -6 -5 -9 -4 -11 3 -6 9 5 8
12 -1 26 -11 18 -23 20 -132 20 -66 0 -126 -4 -134 -9z m1097 -796 c-3 -3 -9
2 -12 12 -6 14 -5 15 5 6 7 -7 10 -15 7 -18z m-605 -60 c-3 -5 0 -4 7 2 10 9
17 9 26 2 9 -7 19 -7 32 0 11 6 23 7 27 3 10 -10 29 -9 37 3 5 6 8 3 8 -7 0
-11 6 -15 21 -11 12 4 25 0 30 -8 7 -12 9 -12 9 1 0 12 2 12 9 2 4 -7 18 -14
29 -15 12 -1 22 -6 22 -12 0 -5 5 -3 10 5 8 13 10 13 10 -1 0 -9 7 -20 16 -23
15 -6 15 -4 3 11 -12 16 -11 16 8 0 12 -11 26 -16 32 -13 5 4 13 1 17 -5 5 -8
3 -9 -6 -4 -9 5 -11 4 -6 -3 4 -7 14 -12 22 -12 8 0 14 -4 14 -10 0 -5 7 -10
16 -10 9 0 12 -5 8 -12 -5 -8 -2 -9 9 -5 9 3 19 1 23 -5 4 -7 3 -8 -4 -4 -7 4
-12 2 -12 -3 0 -6 7 -11 16 -11 17 0 44 -23 44 -38 0 -5 20 -28 45 -51 25 -23
48 -53 51 -66 3 -14 10 -25 15 -25 4 0 16 -22 26 -50 10 -27 21 -50 24 -50 4
0 5 -9 2 -20 -4 -15 0 -20 13 -21 11 0 14 -3 7 -5 -8 -4 -9 -13 -3 -30 5 -13
6 -24 2 -24 -4 0 0 -5 8 -10 13 -9 13 -10 0 -10 -11 -1 -10 -4 4 -15 11 -8 15
-15 8 -15 -6 0 -9 -7 -5 -17 5 -12 3 -14 -8 -8 -12 7 -12 6 -1 -7 7 -8 9 -24
5 -33 -4 -11 -2 -16 4 -12 5 3 10 0 10 -8 0 -8 -4 -12 -8 -10 -8 6 -22 -25
-14 -33 3 -3 5 0 5 6 0 7 5 12 10 12 7 0 7 -6 1 -18 -7 -13 -7 -22 0 -29 8 -8
7 -13 -2 -18 -8 -6 -10 -4 -4 5 5 9 4 11 -4 6 -6 -4 -8 -13 -4 -19 12 -19 12
-38 1 -31 -6 4 -8 -2 -3 -16 6 -19 4 -22 -10 -16 -14 5 -16 4 -7 -7 7 -8 9
-17 5 -21 -4 -3 -8 -13 -10 -21 -2 -8 -5 -23 -7 -32 -3 -10 -5 -22 -5 -26 -1
-5 -6 -5 -13 -1 -8 5 -9 2 -5 -10 4 -9 -2 -33 -13 -54 -11 -20 -20 -30 -20
-22 0 13 -2 13 -9 0 -6 -8 -8 -17 -5 -21 2 -4 -3 -10 -12 -13 -9 -4 -14 -9
-11 -12 3 -3 -5 -16 -18 -29 -14 -12 -21 -26 -17 -30 4 -5 -1 -5 -11 -2 -11 4
-16 3 -12 -3 3 -6 1 -10 -4 -10 -6 0 -10 -3 -8 -8 3 -11 -37 -48 -71 -63 -17
-7 -29 -16 -26 -20 5 -9 -25 -21 -36 -14 -5 3 -15 -3 -22 -12 -7 -10 -20 -19
-28 -21 -8 -2 -16 -8 -18 -13 -2 -5 -8 -9 -13 -9 -6 0 -8 4 -5 9 4 5 -5 4 -18
-2 -13 -7 -22 -16 -19 -22 4 -5 3 -7 -2 -3 -4 4 -17 3 -28 -3 -14 -8 -18 -8
-13 0 10 15 -7 14 -22 -1 -9 -9 -12 -9 -12 1 0 10 -6 10 -24 -3 -14 -9 -27
-12 -30 -8 -2 4 -36 7 -75 6 -39 -1 -71 2 -71 7 0 5 -5 9 -11 9 -6 0 -7 -6 -2
-12 4 -7 -5 -5 -20 5 -24 15 -27 15 -27 2 0 -13 -2 -14 -14 -3 -8 7 -11 18 -8
23 3 6 -2 4 -11 -4 -12 -9 -17 -10 -17 -2 0 7 -4 10 -9 6 -5 -3 -12 -1 -16 5
-4 6 -12 7 -18 3 -7 -4 -5 2 3 12 9 11 10 16 3 11 -7 -4 -13 -5 -13 -2 0 2 -3
12 -7 22 -4 11 -3 15 4 11 7 -4 10 0 9 9 -1 8 -9 20 -17 25 -12 7 -11 9 3 9 9
0 20 5 24 12 4 6 3 8 -3 5 -6 -4 -13 2 -16 13 -3 11 -1 20 3 20 5 0 7 10 5 22
-3 12 1 26 8 31 8 6 7 7 -4 4 -9 -3 -16 1 -16 9 0 8 4 14 8 14 4 0 6 10 4 22
-3 12 1 26 8 31 8 6 7 7 -4 4 -9 -3 -16 1 -16 9 0 8 4 14 8 14 4 0 6 11 3 25
-3 16 0 25 8 25 8 0 6 5 -4 11 -10 5 -18 15 -18 20 0 6 5 7 12 3 7 -5 8 -3 3
6 -5 8 -9 42 -9 77 -1 51 2 62 13 58 11 -4 10 -1 -2 13 -22 24 -22 38 1 21 15
-12 16 -12 5 2 -7 9 -9 20 -5 24 4 5 1 5 -5 1 -7 -4 -13 -2 -13 3 0 6 6 11 13
12 8 0 8 2 -2 6 -11 5 -11 7 0 14 10 6 11 9 2 9 -7 0 -13 5 -13 11 0 5 5 7 11
3 7 -4 7 1 -1 16 -8 16 -9 25 -1 33 8 8 6 17 -7 31 -16 20 -16 20 2 6 15 -11
18 -12 12 -1 -5 8 -3 17 5 23 11 8 11 9 -2 5 -9 -3 -16 1 -16 9 0 8 4 14 8 14
4 0 6 10 4 22 -3 12 1 26 8 31 8 6 7 7 -4 4 -9 -3 -16 1 -16 9 0 8 4 14 8 14
4 0 6 10 4 22 -3 12 1 26 8 31 8 6 7 7 -4 4 -9 -3 -16 1 -16 9 0 8 4 14 8 14
4 0 6 11 3 25 -3 16 0 25 8 25 8 0 6 5 -4 11 -10 5 -18 15 -18 20 0 6 6 7 13
3 8 -5 8 -2 -2 9 -12 15 -11 17 5 17 15 0 16 2 5 9 -13 8 -15 30 -12 97 1 9 6
12 13 8 7 -4 8 -3 4 5 -4 6 -12 9 -17 6 -5 -4 -9 1 -9 10 0 9 4 14 9 11 5 -4
7 4 3 16 -4 16 -2 19 8 13 10 -6 12 -4 8 7 -5 12 1 15 27 13 20 -1 31 3 29 10
-3 6 5 11 16 11 11 0 20 -5 20 -11 0 -5 4 -4 9 4 5 7 21 14 35 14 15 0 28 2
30 6 7 11 45 7 39 -4z m501 -191 c3 -8 2 -12 -4 -9 -6 3 -10 10 -10 16 0 14 7
11 14 -7z m-164 -1064 c0 -5 -5 -10 -11 -10 -5 0 -7 5 -4 10 3 6 8 10 11 10 2
0 4 -4 4 -10z"/>
<path d="M2920 1265 c-7 -9 -8 -15 -2 -15 5 0 12 7 16 15 3 8 4 15 2 15 -2 0
-9 -7 -16 -15z"/>
<path d="M2747 2429 c7 -7 15 -10 18 -7 3 3 -2 9 -12 12 -14 6 -15 5 -6 -5z"/>
<path d="M280 2102 c0 -9 -7 -11 -21 -7 -16 6 -20 4 -13 -6 6 -12 5 -12 -9 0
-14 11 -17 11 -17 0 0 -9 -3 -10 -8 -4 -9 13 -35 18 -27 5 3 -5 1 -10 -5 -10
-6 0 -8 -4 -5 -10 3 -6 -1 -7 -9 -4 -9 3 -14 10 -11 15 3 4 -6 2 -21 -6 -19
-10 -34 -11 -52 -4 -23 9 -24 8 -11 -8 9 -11 10 -14 2 -9 -9 5 -13 1 -14 -11
0 -16 -1 -16 -9 2 -6 13 -9 15 -9 5 -1 -13 -2 -13 -11 0 -8 12 -10 12 -10 -5
0 -17 -2 -17 -10 -5 -7 10 -10 -31 -10 -126 0 -117 3 -143 15 -148 8 -3 15 -1
15 5 0 6 6 7 13 3 7 -5 6 0 -3 11 -14 16 -13 17 7 11 12 -4 24 -3 27 3 3 5 19
8 35 7 20 -1 27 2 24 11 -6 17 9 17 26 1 9 -8 11 -8 8 -2 -5 8 6 13 28 16 19
2 35 0 35 -5 0 -4 5 -5 11 -2 13 9 119 14 114 6 -2 -3 33 -6 77 -5 50 1 84 -3
91 -11 7 -6 20 -11 30 -9 9 1 17 -2 17 -8 0 -5 9 -7 19 -3 11 3 23 0 27 -6 5
-8 3 -9 -6 -4 -9 6 -11 4 -5 -5 6 -10 11 -9 23 6 13 18 14 18 7 -5 -5 -16 -4
-21 4 -17 6 4 11 2 11 -3 0 -6 6 -11 14 -11 8 0 17 -7 20 -16 4 -10 12 -14 22
-10 13 5 14 4 6 -7 -14 -16 -6 -27 20 -27 10 0 18 -5 18 -11 0 -5 -5 -7 -11
-4 -6 4 -5 -2 2 -13 7 -12 17 -18 21 -16 4 3 8 0 8 -5 0 -6 -6 -11 -12 -11
-10 0 -10 -2 -1 -8 18 -11 28 -96 11 -86 -10 6 -10 5 -2 -7 7 -8 11 -25 10
-39 -1 -14 3 -31 8 -39 8 -11 8 -13 -1 -8 -13 8 -13 -100 0 -120 5 -8 3 -13
-3 -13 -7 0 -10 -6 -7 -14 4 -9 -3 -16 -19 -19 -13 -2 -24 0 -24 5 0 5 -10 8
-22 6 -18 -2 -22 1 -20 17 l3 20 -17 -20 c-16 -20 -16 -20 -9 3 3 12 3 22 -2
21 -29 -5 -53 2 -47 14 5 7 0 6 -11 -3 -15 -12 -17 -12 -10 -1 6 11 4 13 -8 8
-10 -3 -17 -2 -17 4 0 6 -4 8 -9 5 -5 -3 -12 1 -15 10 -5 13 -9 14 -20 5 -11
-9 -18 -8 -30 4 -9 9 -16 12 -16 7 0 -12 -26 -10 -37 3 -4 4 -2 5 6 0 9 -5 12
-4 8 3 -4 5 -17 8 -29 4 -16 -4 -19 -2 -13 9 8 12 6 12 -8 0 -14 -11 -20 -11
-33 0 -9 7 -18 9 -22 3 -10 -13 -35 -17 -27 -4 9 14 -8 13 -23 -2 -9 -9 -12
-9 -12 1 0 11 -3 11 -17 0 -15 -12 -16 -12 -9 5 7 20 7 20 -15 0 -12 -10 -19
-13 -15 -6 4 6 2 12 -3 12 -6 0 -11 -6 -11 -12 0 -9 -4 -8 -10 2 -7 11 -10 11
-10 2 0 -7 -5 -10 -10 -7 -6 4 -7 12 -4 18 5 9 3 8 -6 0 -10 -9 -17 -10 -27
-1 -10 8 -12 8 -8 -3 4 -10 -2 -15 -15 -16 -13 -1 -18 2 -14 10 5 9 3 9 -6 0
-10 -9 -17 -10 -27 -2 -9 8 -14 8 -18 -3 -3 -8 -17 -13 -35 -12 l-29 2 0 -138
c0 -122 2 -138 17 -136 9 2 18 8 19 13 2 6 13 8 25 6 11 -4 24 0 29 8 7 11 11
12 17 1 7 -10 11 -10 21 2 9 11 18 13 30 7 10 -6 23 -5 34 0 11 7 17 6 17 -1
0 -5 -5 -10 -12 -10 -6 0 -8 -3 -4 -7 4 -5 14 1 22 11 8 11 14 14 14 7 0 -7 5
-9 10 -6 6 4 17 1 25 -5 12 -10 16 -9 21 4 5 12 10 14 19 6 6 -5 15 -7 19 -3
4 4 11 1 16 -7 7 -10 10 -11 10 -2 0 6 7 12 16 12 9 0 12 -5 8 -12 -6 -10 -4
-10 7 0 18 17 29 15 29 -5 0 -14 2 -15 9 -4 6 10 10 10 13 1 2 -7 20 -13 41
-13 20 -1 37 -4 37 -8 0 -3 12 -11 26 -17 14 -7 23 -8 20 -4 -3 5 1 9 9 9 8 0
14 -3 13 -6 -2 -19 4 -22 19 -10 9 8 14 10 11 4 -3 -5 0 -16 8 -23 8 -7 14 -8
14 -2 0 5 4 10 9 10 6 0 8 -9 6 -19 -2 -13 1 -18 10 -15 7 3 22 -4 33 -16 11
-12 25 -19 31 -15 7 3 11 3 10 -2 -4 -21 2 -34 13 -27 7 4 8 3 4 -5 -5 -7 1
-20 15 -32 20 -18 21 -19 3 -20 -15 0 -16 -2 -4 -7 10 -5 15 -22 16 -49 0 -25
-3 -40 -9 -36 -5 3 -7 0 -5 -8 3 -8 -2 -20 -11 -27 -12 -10 -13 -12 -1 -6 13
7 13 5 1 -9 -7 -9 -17 -14 -22 -11 -5 3 -6 -3 -2 -12 4 -12 3 -15 -5 -10 -11
7 -17 -6 -13 -27 1 -5 -3 -6 -8 -3 -14 9 -41 -4 -41 -19 0 -17 -25 -26 -39
-14 -6 5 -9 6 -6 3 7 -11 -24 -35 -42 -32 -10 2 -17 -2 -16 -8 1 -6 -6 -11
-15 -11 -40 0 -53 -4 -47 -13 4 -6 3 -10 -2 -9 -4 1 -25 1 -46 0 -27 -1 -36
-5 -31 -13 5 -10 4 -10 -6 -1 -10 9 -18 8 -36 -4 -22 -14 -24 -14 -24 3 -1 18
-1 18 -11 2 -5 -10 -17 -18 -25 -18 -8 0 -13 4 -10 8 2 4 -4 9 -15 9 -10 1
-19 -3 -19 -8 0 -6 5 -7 12 -3 7 4 8 3 4 -4 -4 -6 -13 -9 -21 -6 -8 4 -13 9
-11 13 2 3 -8 6 -24 6 -20 0 -26 -4 -22 -15 4 -11 -1 -10 -16 4 -17 15 -22 16
-23 5 0 -8 -4 -6 -9 6 -8 18 -9 18 -9 2 -1 -10 -6 -15 -12 -12 -6 4 -27 9 -47
10 -20 2 -41 4 -45 4 -5 1 -6 4 -4 9 3 4 -5 7 -18 7 -22 0 -23 -2 -24 -118 -2
-110 0 -120 19 -137 12 -10 29 -16 37 -13 9 4 14 2 10 -3 -3 -5 3 -10 13 -10
10 0 16 4 14 8 -3 4 0 8 5 8 6 0 11 -4 11 -10 0 -5 5 -10 11 -10 5 0 7 6 3 13
-5 9 -4 9 6 0 9 -8 19 -9 32 -2 13 7 18 6 18 -2 0 -9 3 -9 14 0 9 8 16 8 20 2
8 -12 79 -10 88 4 5 6 8 6 8 -2 0 -7 5 -13 11 -13 5 0 7 5 4 11 -4 6 3 5 14
-3 18 -11 23 -11 30 1 7 11 9 11 14 0 4 -10 6 -10 6 -1 1 6 8 12 17 12 9 0 12
-5 8 -12 -6 -11 -4 -11 7 0 7 6 17 12 22 12 4 0 5 -6 2 -12 -4 -7 0 -5 8 4 8
10 17 15 20 11 4 -3 7 -2 7 4 0 6 7 14 16 17 14 5 15 4 4 -9 -8 -9 -8 -15 -2
-15 6 0 14 5 17 10 3 6 15 10 26 10 10 0 19 5 19 10 0 6 13 10 28 10 16 0 39
9 51 19 13 11 28 18 36 15 7 -3 15 2 18 10 4 9 13 13 22 10 8 -3 15 -1 15 5 0
6 7 11 16 11 9 0 12 5 8 13 -5 7 0 6 11 -3 11 -9 16 -10 11 -2 -4 7 -2 12 4
12 6 0 8 5 4 13 -6 8 -3 8 9 -1 9 -8 22 -10 28 -6 7 4 9 3 6 -3 -4 -6 0 -13 8
-17 8 -3 15 -12 15 -19 0 -22 26 -41 36 -26 5 9 11 7 21 -6 7 -11 13 -15 13
-9 0 5 5 2 10 -6 9 -13 11 -13 20 0 8 12 11 13 19 1 7 -11 9 -11 14 0 5 12 6
12 6 0 1 -11 4 -11 18 0 14 12 15 12 9 1 -7 -11 -4 -12 13 -3 16 9 21 9 21 -1
0 -9 3 -9 10 2 5 8 10 10 10 4 0 -6 7 -11 15 -11 8 0 12 4 9 9 -3 4 -1 8 5 8
5 0 12 -6 14 -12 4 -10 6 -10 6 0 1 6 6 12 12 12 5 0 7 -5 3 -12 -4 -7 -3 -8
4 -4 9 5 8 12 0 26 -9 14 -14 16 -20 7 -5 -8 -8 -5 -9 8 0 11 -3 15 -6 8 -7
-19 -57 32 -50 50 6 16 -15 42 -25 32 -3 -3 -8 3 -11 15 -3 11 -1 18 4 14 5
-3 9 0 9 5 0 6 -6 11 -12 11 -9 0 -8 4 2 10 12 8 12 10 1 10 -11 0 -11 3 0 17
10 11 10 14 2 9 -7 -4 -13 -3 -13 3 0 5 5 13 10 16 7 4 6 13 -1 27 -10 18 -9
20 7 14 18 -6 18 -5 2 7 -13 11 -15 16 -6 25 9 9 9 12 -1 12 -11 0 -11 3 -1
15 9 10 9 15 1 15 -6 0 -11 5 -11 11 0 5 4 8 8 5 4 -2 7 11 7 30 0 19 -2 34
-5 34 -3 0 -5 17 -5 39 -1 30 3 38 15 34 10 -3 10 -1 -2 7 -17 11 -26 36 -10
26 5 -3 9 1 9 9 0 8 -5 15 -10 15 -5 0 -4 7 3 15 9 10 9 15 1 15 -6 0 -11 5
-11 11 0 5 4 8 8 5 4 -2 7 11 7 30 0 19 -2 34 -5 34 -9 0 -5 74 4 89 6 10 5
12 -2 7 -15 -9 -16 6 -1 21 6 6 8 17 3 24 -4 8 -9 28 -10 46 -1 25 2 30 15 26
14 -4 14 -3 1 5 -14 11 -23 75 -8 66 4 -3 8 0 8 5 0 6 -4 11 -8 11 -5 0 -8 18
-8 39 0 30 3 38 16 34 12 -4 12 -2 -2 6 -9 6 -15 19 -13 29 2 9 4 17 5 17 1 0
3 12 4 28 1 15 -2 27 -7 27 -5 0 -3 8 4 17 8 9 9 14 3 10 -7 -4 -15 0 -18 9
-3 8 -2 13 3 10 5 -3 11 0 13 7 7 16 -2 38 -11 32 -5 -2 -6 7 -3 22 3 17 1 24
-6 19 -6 -3 -13 -2 -17 4 -3 5 2 10 12 10 17 1 17 1 1 11 -10 5 -18 15 -18 20
0 6 4 8 8 5 5 -3 9 1 9 9 0 8 -5 13 -11 12 -6 -1 -11 8 -10 19 0 15 -4 20 -13
17 -8 -3 -13 -2 -12 3 4 26 -3 42 -22 47 -15 4 -20 11 -16 21 4 9 1 16 -6 16
-22 1 -50 29 -52 52 -1 13 -7 24 -13 24 -7 1 -22 2 -34 3 -18 1 -20 3 -8 10 8
6 18 7 24 4 5 -3 6 -1 2 5 -4 6 -14 8 -22 5 -9 -3 -19 -1 -23 5 -3 6 -13 12
-21 14 -8 2 -21 10 -28 18 -8 8 -11 9 -7 3 4 -9 1 -11 -9 -7 -9 3 -14 10 -11
14 3 5 1 11 -4 14 -5 4 -13 1 -17 -5 -5 -8 -3 -9 6 -4 9 6 11 4 5 -5 -6 -10
-12 -8 -24 8 -11 15 -25 20 -48 18 -21 -1 -33 2 -33 10 0 7 -8 11 -17 9 -10
-1 -31 4 -48 13 -25 13 -28 13 -18 1 10 -12 8 -15 -7 -15 -10 0 -16 4 -14 8 3
4 -1 8 -8 9 -7 0 -23 2 -35 3 -12 1 -20 -1 -17 -6 3 -4 0 -8 -5 -8 -6 0 -11 6
-11 13 0 9 -17 12 -57 10 -35 -1 -61 3 -65 10 -6 9 -8 8 -8 -1z m457 -398 c-3
-3 -12 -4 -19 -1 -8 3 -5 6 6 6 11 1 17 -2 13 -5z"/>
<path d="M864 1911 c4 -6 16 -16 28 -22 15 -8 18 -8 14 0 -4 6 -16 16 -28 22
-15 8 -18 8 -14 0z"/>
<path d="M1100 1193 c0 -7 -7 -10 -15 -7 -10 4 -15 0 -15 -11 0 -9 5 -13 10
-10 6 4 10 -5 10 -20 0 -19 4 -26 14 -22 10 4 12 0 9 -14 -3 -11 0 -19 6 -19
7 0 10 -4 6 -9 -3 -5 1 -16 9 -23 7 -8 23 -32 34 -54 11 -21 34 -54 51 -71 32
-33 40 -50 19 -37 -7 4 -8 3 -4 -5 4 -6 12 -9 17 -6 5 4 9 0 9 -7 0 -7 20 -32
44 -55 24 -23 42 -44 40 -46 -2 -2 7 -10 21 -17 14 -7 25 -17 25 -22 0 -13 62
-64 73 -60 5 2 7 -4 4 -12 -4 -9 -3 -15 1 -14 12 4 72 -45 66 -53 -3 -5 3 -6
12 -2 13 5 15 3 9 -7 -5 -9 -4 -11 3 -6 7 4 21 1 33 -7 15 -11 17 -16 7 -20
-7 -3 -1 -6 13 -6 15 -1 30 -8 33 -17 3 -8 10 -12 16 -9 5 3 10 1 10 -6 0 -7
3 -9 7 -6 3 4 11 0 17 -7 6 -8 20 -16 31 -18 11 -2 26 -9 33 -16 8 -7 18 -9
24 -6 7 4 8 2 4 -4 -7 -12 5 -16 33 -13 7 2 10 -2 6 -8 -3 -6 1 -11 10 -11 10
0 13 5 9 12 -4 7 -3 8 5 4 6 -4 9 -11 6 -16 -3 -5 -1 -11 5 -15 5 -3 10 -1 10
6 0 7 7 4 16 -7 8 -10 12 -12 8 -4 -6 12 -5 13 7 3 8 -6 18 -13 24 -15 5 -1 9
-6 8 -9 -1 -3 4 -6 12 -6 8 0 11 5 8 11 -4 6 0 5 9 -1 8 -7 18 -10 21 -6 4 3
7 1 7 -5 0 -7 15 -12 36 -12 19 0 33 -4 30 -8 -3 -5 9 -9 26 -9 18 0 34 -5 36
-12 3 -8 9 -6 19 6 8 10 12 13 9 8 -2 -6 -1 -17 3 -24 6 -10 12 -9 25 4 15 15
16 15 17 -2 0 -10 3 -13 6 -5 2 6 9 12 14 12 6 0 7 -4 4 -10 -3 -5 0 -7 8 -4
8 3 18 0 22 -5 3 -6 12 -8 18 -4 17 10 47 11 47 1 0 -11 23 -6 32 7 5 7 8 6 8
-1 0 -11 65 -13 76 -1 11 10 24 9 24 -4 0 -5 -5 -7 -12 -3 -7 4 -8 3 -4 -5 4
-6 13 -8 19 -4 7 4 19 8 27 8 8 0 21 4 29 9 10 6 16 5 19 -3 3 -9 7 -9 18 0 7
6 19 9 26 7 7 -3 18 2 24 10 9 12 13 12 19 2 6 -9 4 -11 -5 -5 -8 5 -11 4 -7
-3 4 -5 16 -8 27 -5 11 3 17 10 13 17 -4 6 -1 6 9 -2 12 -10 18 -9 28 3 9 10
16 12 25 5 8 -6 18 -5 31 5 22 17 38 20 29 5 -3 -6 1 -7 9 -4 9 3 13 11 9 18
-4 6 1 5 11 -3 13 -11 16 -11 14 -2 -4 16 34 24 43 9 4 -6 10 -2 13 10 5 14
12 19 23 15 11 -4 14 -2 9 5 -5 9 0 9 19 2 17 -7 24 -7 20 0 -3 6 -1 10 5 10
6 0 9 4 5 9 -3 6 5 8 19 5 14 -2 28 0 31 6 4 6 11 8 16 4 5 -3 8 0 7 8 -2 7 3
12 11 10 7 -1 19 5 27 15 7 10 14 14 14 9 0 -5 7 -3 15 4 12 10 15 35 14 114
0 55 -3 96 -5 89 -3 -7 -11 -10 -19 -7 -7 3 -19 -4 -25 -16 -10 -18 -14 -19
-28 -8 -9 7 -14 9 -10 4 11 -13 -27 -47 -44 -41 -9 4 -18 -1 -22 -10 -3 -9
-10 -14 -15 -10 -5 3 -13 0 -17 -6 -4 -8 -9 -7 -15 2 -7 11 -9 10 -9 -5 0 -12
-5 -16 -16 -12 -8 3 -12 2 -9 -4 4 -6 -6 -8 -24 -6 -18 2 -29 -1 -28 -8 1 -6
-6 -10 -15 -10 -10 1 -18 -2 -18 -7 0 -4 -9 -6 -20 -4 -11 2 -20 -2 -20 -8 0
-7 -4 -6 -10 3 -8 13 -10 13 -10 -2 0 -11 -6 -15 -19 -11 -10 3 -29 0 -41 -7
-16 -9 -25 -8 -38 2 -13 11 -14 11 -7 -1 6 -11 3 -13 -13 -9 -12 4 -20 2 -17
-2 3 -5 1 -11 -5 -15 -5 -3 -10 -2 -10 3 0 6 -7 13 -16 16 -8 3 -12 2 -9 -3 3
-5 1 -12 -5 -16 -5 -3 -10 0 -10 7 0 9 -3 9 -10 -2 -7 -11 -10 -11 -10 -2 0 8
-5 10 -12 5 -22 -13 -48 -13 -48 0 0 8 -4 7 -10 -3 -9 -13 -10 -13 -10 0 0 9
-3 11 -8 5 -9 -13 -92 -16 -92 -3 0 5 -6 6 -12 1 -18 -11 -58 -12 -64 -1 -3 5
-12 4 -20 -3 -12 -10 -13 -9 -8 4 5 14 1 15 -25 7 -22 -6 -29 -6 -25 2 5 7 1
9 -9 5 -10 -4 -17 -1 -17 6 0 8 -4 6 -10 -3 -6 -10 -10 -11 -10 -2 0 6 -12 12
-26 12 -14 0 -23 4 -20 8 3 5 -1 9 -9 9 -8 0 -12 -4 -9 -9 3 -4 0 -8 -5 -8 -6
0 -11 5 -11 11 0 6 -9 8 -20 4 -16 -5 -19 -3 -13 11 4 12 3 15 -5 10 -6 -4
-26 1 -43 10 -17 8 -42 14 -55 11 -13 -2 -22 1 -21 6 1 6 -9 13 -23 17 -14 4
-24 12 -23 17 1 6 -6 9 -17 6 -11 -3 -20 0 -20 6 0 6 -7 11 -15 11 -8 0 -15 5
-15 11 0 5 -5 7 -10 4 -6 -3 -13 1 -16 10 -5 13 -9 13 -22 3 -12 -10 -14 -10
-8 0 4 7 2 12 -4 12 -6 0 -8 5 -4 12 4 6 3 8 -4 4 -6 -3 -14 -1 -18 5 -4 8 -9
7 -15 -2 -6 -10 -9 -8 -9 9 0 13 -4 20 -10 17 -5 -3 -10 -1 -10 5 0 6 -4 8
-10 5 -5 -3 -10 1 -10 10 0 9 -4 14 -9 10 -5 -3 -16 4 -25 16 -8 12 -19 18
-25 15 -5 -4 -13 -1 -17 5 -5 8 -3 9 7 4 12 -8 12 -6 0 8 -7 9 -19 17 -26 17
-7 0 -19 8 -26 18 -13 16 -12 16 6 3 11 -8 8 -3 -7 12 -15 15 -32 27 -38 27
-6 0 -15 12 -20 26 -6 14 -14 22 -20 19 -6 -4 -7 1 -3 11 4 10 2 15 -3 11 -6
-3 -17 3 -25 15 -8 11 -25 32 -39 45 -21 20 -22 23 -5 17 14 -5 10 2 -13 25
-18 18 -34 41 -35 51 -1 15 -4 17 -17 7 -8 -6 -12 -7 -8 -3 4 5 2 16 -5 24
-10 13 -9 14 3 7 13 -8 13 -6 1 8 -7 9 -17 14 -22 11 -5 -3 -6 3 -2 12 5 13 3
16 -10 11 -8 -3 -18 -1 -21 6 -3 9 -5 9 -5 0 -1 -7 -8 -10 -16 -7 -8 4 -23 0
-32 -7 -10 -8 -14 -9 -10 -2 4 6 3 14 -3 18 -5 3 -10 2 -10 -3 0 -13 -33 -10
-42 3 -5 6 -8 5 -8 -2z m104 -219 c3 -8 2 -12 -4 -9 -6 3 -10 10 -10 16 0 14
7 11 14 -7z"/>
<path d="M2945 849 c-4 -6 -5 -12 -2 -15 2 -3 7 2 10 11 7 17 1 20 -8 4z"/>
<path d="M2975 640 c-3 -5 -1 -10 4 -10 6 0 11 5 11 10 0 6 -2 10 -4 10 -3 0
-8 -4 -11 -10z"/>
</g>
</svg>
